<!-- Generator: Adobe Illustrator 19.1.0, SVG Export Plug-In  -->
<svg version="1.1"
	 xmlns="http://www.w3.org/2000/svg" xmlns:xlink="http://www.w3.org/1999/xlink" xmlns:a="http://ns.adobe.com/AdobeSVGViewerExtensions/3.0/"
	 x="0px" y="0px" width="501.4px" height="110.9px" viewBox="0 0 501.4 110.9" enable-background="new 0 0 501.4 110.9"
	 xml:space="preserve">
<defs>
</defs>
<g id="xbJlhm_2_">
	<g>
		<path d="M397.3,108.8c-4.2,0-8.2,0.1-12.1-0.1c-0.6,0-1.4-0.7-1.6-1.3c-4.2-9.5-8.3-19-12.3-28.5c-0.6-1.3-1.2-1.8-2.7-1.8
			c-16.6,0.1-33.1,0.1-49.7,0c-1.5,0-2.1,0.5-2.7,1.8c-3.9,9.5-7.9,18.9-11.8,28.3c-0.5,1.1-1.1,1.6-2.3,1.5c-3.7-0.1-7.4,0-11.4,0
			c0.7-1.7,1.3-3.3,2-4.8c14.8-34.1,29.7-68.3,44.5-102.4c0.5-1.1,1-1.6,2.3-1.6c3,0.1,6.1,0.1,9.1,0c1.1,0,1.6,0.4,2.1,1.3
			c9.6,22.1,19.2,44.2,28.8,66.3c5.6,12.9,11.3,25.9,16.9,38.8C396.7,107.2,396.9,107.8,397.3,108.8z M343.7,12.2
			c-7.6,18.5-15,36.5-22.5,54.5c15.1,0,29.9,0,45,0C358.7,48.6,351.3,30.6,343.7,12.2z"/>
		<path d="M501,98.6c0.1,2.4,0.2,4.5,0.4,6.6c0.2,3,0.2,3.1-2.7,3.9c-6,1.7-12.1,2.5-18.3,1.2c-8-1.6-13.1-6.9-14.4-14.9
			c-0.4-2.2-0.6-4.4-0.6-6.6c0-17.4,0-34.9,0-52.3c0-0.8,0-1.6,0-2.6c-6.1,0-12,0-18.1,0c0-3.2,0-6.2,0-9.4c5.9,0,11.8,0,18,0
			c0-8.2,0-16.2,0-24.3c3.7,0,7,0,10.6,0c0,8,0,16,0,24.1c8.3,0,16.5,0,24.7,0c0,3.3,0,6.3,0,9.6c-8.2,0-16.3,0-24.7,0
			c0,0.9,0,1.5,0,2.2c0,16.6,0,33.2,0,49.7c0,2.2,0.3,4.5,0.7,6.6c1.2,5.7,4.7,8.6,10.7,9c4,0.3,7.9-0.5,11.6-2
			C499.6,99.1,500.2,98.9,501,98.6z"/>
		<path d="M443.2,33.7c-1.9-0.1-3.6-0.3-5.3-0.3c-13.5,0-24.5,9.1-26.9,22.4c-0.4,2.1-0.6,4.3-0.6,6.4c0,14.7,0,29.3,0,44
			c0,0.8,0,1.6,0,2.4c-3.6,0-7,0-10.8,0c0-28.1,0-56.2,0-84.4c3,0,6.3,0,9.9,0c0,5.2,0,10.4,0,15.5c2.2-2.8,4-5.8,6.5-8.2
			c7.1-6.8,15.7-9.3,25.4-7.8c1.3,0.2,2,0.7,1.9,2.3C443.1,28.6,443.2,31.1,443.2,33.7z"/>
		<path d="M20.3,100.9c3.3-7.7,6.6-15.1,9.8-22.6c1.2-2.8,2.5-5.6,3.7-8.5c0.4-0.9,0.8-1.3,1.7-1.2c1.5,0.1,3.1,0,4.7,0
			c0,13.2,0,26.1,0,39.2c-1.2,0-2.4,0-3.8,0c0-11.2,0-22.4,0-33.7c-0.2,0-0.3-0.1-0.5-0.1c-0.3,0.6-0.7,1.3-1,1.9
			c-4.4,10.1-8.7,20.3-13.2,30.4c-0.3,0.7-1.1,1.1-1.6,1.7c-0.5-0.6-1.3-1-1.6-1.7C14.1,96.2,9.6,86,5.1,75.8
			c-0.2-0.6-0.5-1.1-1.2-1.6c0,11.2,0,22.4,0,33.8c-1.5,0-2.7,0-4,0c0-13,0-26,0-39.2c1.9,0,3.8-0.1,5.7,0.1c0.4,0,0.9,0.8,1.2,1.4
			c4.3,9.9,8.6,19.8,12.9,29.7C19.9,100.1,20,100.3,20.3,100.9z"/>
		<path d="M176,108c-1.3,0-2.4,0-3.8,0c0-10,0-19.9,0-30c1,0,2.1,0,3.3,0c0.1,1.6,0.3,3.3,0.5,5.2c5.2-8.7,17.4-7.8,19.9,0.3
			c0.6-0.9,1.1-1.7,1.7-2.4c3.3-4.2,8.4-4.8,13.3-3.4c4.5,1.3,6.5,5,6.7,9.5c0.2,6.9,0.1,13.7,0.1,20.7c-1.1,0-2.2,0-3.5,0
			c0-0.8,0-1.6,0-2.4c-0.1-5.9,0-11.9-0.2-17.8c-0.2-4.1-2.3-6.6-5.5-7.1c-4.3-0.8-8.3,0.8-9.9,4.3c-0.9,2.1-1.4,4.5-1.5,6.8
			c-0.2,5.4-0.1,10.7-0.1,16.3c-1.2,0-2.4,0-3.7,0c0-0.7,0-1.4,0-2c0-5.4,0-10.9,0-16.3c0-0.9,0-1.9-0.2-2.8
			c-0.6-2.8-1.6-5.4-4.8-6.2c-3.6-0.9-7.8,0.8-9.9,4c-1.7,2.4-2.3,5.2-2.3,8.1C176,97.7,176,102.7,176,108z"/>
		<path d="M193.6,32.7c1.2,0,2.2,0,3.5,0c0,1.5,0,2.9,0,4.5c7.3-6.6,16.2-7,22.1-1.2c5.4,5.3,5.8,15.1,0.8,20.8
			c-3,3.4-6.8,4.9-11.4,4.9c-4.5,0-8.3-1.5-11.5-5.4c0,5.7,0,10.8,0,16.1c-1.3,0-2.4,0-3.6,0C193.6,59.2,193.6,46,193.6,32.7z
			 M208.6,58.3c6.5,0,11.2-4.8,11.2-11.5c0-6.5-4.7-11.5-11-11.5c-6.4-0.1-11.8,5.1-11.9,11.5C196.8,53.1,202.1,58.3,208.6,58.3z"/>
		<path d="M142.2,60.8c-1.2,0-2.3,0-3.6,0c0-1.4,0-2.7,0-4.6c-3.2,3.9-7.1,5.5-11.7,5.4c-4.6-0.1-8.5-1.7-11.4-5.2
			c-4.8-5.9-4.1-15.8,1.3-20.7c5.4-4.9,15.8-5.7,21.8,1.5c0-2.7,0-5.1,0-7.6c0-2.4,0-4.8,0-7.4c1.2,0,2.4,0,3.6,0
			C142.2,35.1,142.2,47.9,142.2,60.8z M127.1,58.3c6.5,0,11.8-5,11.8-11.3c0-6.5-5.2-11.7-11.8-11.7c-6.3,0-11,4.8-11.1,11.4
			C116,53.5,120.6,58.3,127.1,58.3z"/>
		<path d="M133.6,93.8c-8.3,0-16.7,0-25.1,0c-0.5,4,2.2,8.7,6,10.6c5.3,2.6,10.7,1.3,15.8-3.9c0.4,0.3,0.9,0.6,1.3,1
			c0.4,0.3,0.8,0.7,1.2,1.2c-3.1,4.5-7.5,6.2-12.7,6.4c-7.4,0.2-13.3-4.2-15-11.2c-2-8.2,1.1-16,7.8-19.1c5.1-2.4,10.4-2.3,15.1,0.9
			c4.8,3.2,6.1,8.1,5.8,13.6C133.8,93.3,133.7,93.5,133.6,93.8z M130.1,90.5c0-5.8-4.8-10.2-10.7-10.1c-5.8,0-11.1,4.9-10.9,10.1
			C115.6,90.5,122.8,90.5,130.1,90.5z"/>
		<path d="M0,23.9c5.9,0.3,11.7,0.2,17.4,1c5.7,0.8,8.3,4.6,8.2,10.1c0,5.5-3.1,9.6-8.5,10.5c-3.7,0.6-7.5,0.4-11.3,0.5
			c-0.5,0-1,0-1.7,0c0,4.9,0,9.8,0,14.7c-1.5,0-2.8,0-4.2,0C0,48.6,0,36.5,0,23.9z M4.2,42.6c4.1-0.2,8.1-0.1,12-0.7
			c3.4-0.5,5.3-3.3,5.4-6.7c0-3.5-1.6-6-5.2-6.6c-4-0.6-8-0.6-12.2-0.9C4.2,32.8,4.2,37.5,4.2,42.6z"/>
		<path d="M152,47.8c-0.2,4.1,2.5,8.3,6.3,9.8c4.8,1.9,10,0.3,13.7-4.2c0.9,0.7,1.7,1.4,2.7,2.2c-2.1,3.4-5.2,5.2-8.9,5.8
			c-8.9,1.4-15.5-2.7-17.3-10.9c-1.8-8.2,2.4-15.9,9.8-18c10-2.9,19.1,5.2,17.1,15.3C167.5,47.8,159.7,47.8,152,47.8z M171.6,44.4
			c0-3.4-1.6-5.9-4.4-7.5c-3.5-2.1-7.2-2.2-10.7,0c-2.7,1.7-4.3,4.2-4.8,7.5C158.5,44.4,165,44.4,171.6,44.4z"/>
		<path d="M230,93c0-9.2,6.7-15.9,15.9-15.9c9.2,0,15.9,6.6,16,15.9c0.1,9.2-6.8,16.1-16,16C236.7,108.8,230,102.2,230,93z
			 M246,105.6c7,0,12.2-5.4,12.2-12.6c0-7.2-5.2-12.6-12.2-12.7c-7-0.1-12.4,5.5-12.3,12.7C233.8,100.3,239,105.6,246,105.6z"/>
		<path d="M289.2,43.8c1.1-6.8-3.8-9.1-9-8.4c-2.5,0.4-4.8,1.6-7.2,2.4c0,0.2,0,0.4,0,0.6c-0.7-0.8-1.4-1.6-2.3-2.5
			c3.9-3.3,8.3-4.5,13.1-3.9c6.4,0.9,9.1,4.1,9.1,10.6c0,6,0,12,0,18.1c-0.7,0-1.7,0-3,0c-0.1-1.2-0.3-2.4-0.5-4
			c-1.8,2.5-3.8,4.4-6.6,4.6c-2.7,0.2-5.4,0.1-8-0.6c-3.1-0.8-4.9-3.2-5.2-6.5c-0.3-3.6,1-6.4,4.2-8.2c2.9-1.6,6.1-2,9.3-2.2
			C285.1,43.7,287.1,43.8,289.2,43.8z M289.2,46.8c-4.4,0-8.7-0.3-12.8,1.7c-2,1-3.2,2.5-3.1,4.8c0.1,2.4,1.6,3.8,3.8,4.5
			C284.2,60.5,290.5,54.9,289.2,46.8z"/>
		<path d="M53.8,60.8c-1.2,0-2.3,0-3.6,0c0-0.7,0-1.4,0-2c0-5.1,0-10.3,0-15.4c0-4-1.6-6.8-4.3-7.7c-3.6-1.2-7.9,0.2-10.1,3.2
			c-1.7,2.3-2.2,5-2.3,7.9c0,4.6,0,9.2,0,14c-1.3,0-2.4,0-3.7,0c0-12.8,0-25.6,0-38.5c1.2,0,2.2,0,3.5,0c0,4.8,0,9.7,0,14.9
			c0.5-0.4,0.7-0.6,0.9-0.8c3.4-4.4,9.7-5.8,14.7-3.3c3.1,1.5,4.7,4.3,4.8,7.4C54,47.2,53.8,53.9,53.8,60.8z"/>
		<path d="M103.8,43.8c0.8-5.3-1.9-8.4-7.4-8.5c-2.9-0.1-4.7,0.6-9,3.1c-0.7-0.8-1.3-1.6-2.1-2.5c3.9-3.2,8.3-4.5,13.2-3.8
			c6.4,0.9,8.9,4,8.9,10.4c0,6.1,0,12.1,0,18.3c-0.6,0-1.7,0-2.9,0c-0.2-1.2-0.3-2.4-0.6-4c-3.5,5.1-8.4,5.6-13.6,4.4
			c-3.6-0.8-5.7-3.3-6.1-6.7c-0.5-3.8,0.9-6.7,4.2-8.5c3.1-1.7,6.6-2.1,10-2.2C100.3,43.8,102.1,43.8,103.8,43.8z M103.8,46.8
			c-4.4-0.1-8.6-0.3-12.6,1.6c-2.1,1-3.4,2.5-3.3,4.9c0.1,2.2,1.4,3.9,3.9,4.6C97.6,59.5,105.1,56.8,103.8,46.8z"/>
		<path d="M231.5,60.8c-1.3,0-2.4,0-3.5,0c0-12.8,0-25.6,0-38.5c1.1,0,2.1,0,3.5,0c0,4.8,0,9.7,0,14.5c2-2.1,4.1-3.9,6.9-4.5
			c5.9-1.3,12.9,0.4,13.5,9c0.4,5.9,0.2,11.9,0.2,17.8c0,0.5-0.1,1.1-0.1,1.7c-1.2,0-2.3,0-3.6,0c0-1.1,0-2.2,0-3.3
			c0-5,0.1-10-0.2-15c-0.3-4.5-2-6.4-5.5-7.1c-3.5-0.7-7.5,1.1-9.4,4.2c-1.5,2.4-1.7,5.1-1.8,7.8C231.5,51.9,231.5,56.3,231.5,60.8z
			"/>
		<path d="M69.1,78c1.3,0,2.4,0,3.5,0c0.1,0.2,0.2,0.3,0.2,0.4c0,9.8,0,19.6,0,29.5c-0.8,0-1.9,0-3.2,0c-0.2-1.7-0.3-3.3-0.5-5.2
			c-1,1.2-1.7,2.3-2.6,3.1c-3.6,3.3-10.1,4.1-14.4,1.7c-3.6-2-5-5.4-5.1-9.1c-0.2-6.8-0.1-13.6-0.1-20.5c1.2,0,2.3,0,3.6,0
			c0,0.6,0,1.3,0,1.9c0,5.4,0,10.8,0,16.1c0,0.7,0,1.4,0.1,2c0.5,3.4,1.6,6.3,5.3,7.2c4,1.1,8.6-0.7,10.8-3.9
			c1.7-2.5,2.3-5.3,2.3-8.3C69.1,88.2,69.1,83.2,69.1,78z"/>
		<path d="M161.4,78c1.3,0,2.4,0,3.7,0c0,10,0,19.9,0,29.9c-0.9,0-2,0-3.3,0c-0.1-1.7-0.2-3.3-0.3-5.2c-0.3,0.3-0.5,0.4-0.6,0.6
			c-3.3,5.9-10.8,6.7-15.8,4.5c-3.9-1.7-5.4-5.1-5.6-8.9c-0.3-6.2-0.1-12.4-0.2-18.6c0-0.7,0-1.5,0-2.3c1.3,0,2.4,0,3.7,0
			c0,1.5,0,2.9,0,4.3c0,4.8,0,9.7,0,14.5c0,4.5,1.7,7.3,4.8,8.4c3.8,1.3,8.6-0.2,11-3.3c1.9-2.5,2.5-5.5,2.6-8.5c0-4.4,0-8.8,0-13.2
			C161.4,79.5,161.4,78.8,161.4,78z"/>
		<path d="M77.6,102.9c1.2-0.8,2.2-1.5,3.2-2.2c2.7,3.8,6.2,5.4,10.6,4.7c1.2-0.2,2.5-0.8,3.5-1.6c3.2-2.5,2.7-6.6-1-8.2
			c-1.9-0.8-4-1.2-6-1.7c-1.4-0.4-2.8-0.7-4.1-1.2c-2.8-1-4.6-2.9-4.9-5.9c-0.3-2.9,0.6-5.5,2.9-7.4c4.6-3.6,12.6-3.1,16.5,1.1
			c0.5,0.6,0.9,1.3,1.5,2c-1.2,0.7-2.2,1.3-3.3,2c-3.2-4-6.7-5.2-10.7-3.5c-2.1,0.9-3.4,2.6-3.3,4.5c0.1,2.2,1.5,3.5,3.4,4.1
			c2.5,0.7,5,1.2,7.5,1.9c5.2,1.4,7.4,4,7.2,8.4c-0.2,4.4-3.1,7.8-7.9,8.7c-5.5,0.9-10.6,0-14.4-4.6
			C78.1,103.7,77.9,103.4,77.6,102.9z"/>
		<path d="M281,66.5c-0.2,1-0.5,2-0.7,2.9c-1.2-0.1-2.3-0.3-3.4-0.3c-2.3,0-3.6,0.9-4.1,3.2c-0.4,1.8-0.5,3.6-0.7,5.7
			c1.5,0,2.7,0,3.8,0c1.1,0,2.2,0,3.4,0c0,1.1,0,2.1,0,3.3c-1.2,0-2.3,0-3.5,0c-1.1,0-2.2,0-3.5,0c0,8.9,0,17.8,0,26.7
			c-1.3,0-2.4,0-3.8,0c0-8.9,0-17.7,0-26.7c-2.1,0-4.1,0-6.2,0c0-1.1,0-2.1,0-3.3c2,0,4,0,6,0c0.4-4.4-0.1-9,4.4-11.4
			C275.4,65.2,278.2,65.5,281,66.5z"/>
		<path d="M185.5,60.8c-1.2,0-2.3,0-3.5,0c0-12.8,0-25.6,0-38.5c1.1,0,2.2,0,3.5,0C185.5,35.1,185.5,47.9,185.5,60.8z"/>
		<path d="M77.8,60.8c-1.2,0-2.3,0-3.5,0c0-12.9,0-25.6,0-38.5c1.2,0,2.3,0,3.5,0C77.8,35.1,77.8,47.9,77.8,60.8z"/>
		<path d="M263.5,60.8c-1.3,0-2.4,0-3.6,0c0-9.4,0-18.7,0-28c1.2,0,2.3,0,3.6,0C263.5,42.1,263.5,51.4,263.5,60.8z"/>
		<path d="M61.8,32.8c1.2,0,2.3,0,3.5,0c0,9.4,0,18.7,0,28.1c-1.2,0-2.3,0-3.5,0C61.8,51.5,61.8,42.2,61.8,32.8z"/>
		<path d="M63.5,28.9c-1.5,0-2.9-1.3-2.9-2.8c0-1.5,1.3-2.8,2.8-2.8c1.6,0,2.7,1,2.7,2.7C66.2,27.5,65.1,28.8,63.5,28.9z"/>
		<path d="M261.7,28.9c-1.5,0-2.8-1.5-2.8-2.9c0-1.5,1.4-2.8,2.9-2.7c1.5,0.1,2.6,1.2,2.6,2.8C264.5,27.6,263.2,28.9,261.7,28.9z"/>
	</g>
</g>
</svg>
